<svg id="Layer_1" data-name="Layer 1" xmlns="http://www.w3.org/2000/svg" viewBox="0 0 432 432"><defs><style>.cls-1{fill:#235b8c;}.cls-2{fill:#d8e2e7;}.cls-3{fill:#f2d377;}.cls-4{fill:#202020;}</style></defs><path class="cls-1" d="M330.49,200a77,77,0,0,0-74.41,59.18,3.8,3.8,0,0,1-3.73,2.93,3.91,3.91,0,0,1-2.65-1,49.66,49.66,0,0,0-7.95-5.93,48.75,48.75,0,0,0-9.65-4.49L224,258.8a40,40,0,0,1,19,9.65,13.86,13.86,0,0,0,22.86-7A67.27,67.27,0,0,1,289,224.8,66.29,66.29,0,0,1,330.56,210H331V200Zm.51,0v10a67,67,0,0,1,56.52,103H178.91A39.19,39.19,0,0,1,176.8,306l-8.14,8.14a48.74,48.74,0,0,0,4,8.91H392.75A76.66,76.66,0,0,0,408,275.71C407.3,233.89,372.76,200,331,200Z"/><circle class="cls-2" cx="216" cy="346" r="7"/><circle class="cls-2" cx="257" cy="379" r="7"/><circle class="cls-2" cx="294" cy="346" r="7"/><circle class="cls-2" cx="332" cy="381" r="7"/><circle class="cls-2" cx="358" cy="346" r="7"/><circle class="cls-2" cx="294" cy="407" r="7"/><circle class="cls-2" cx="213" cy="407" r="7"/><circle class="cls-3" cx="140" cy="143" r="59"/><path class="cls-3" d="M137.74,72.71a5,5,0,0,1-5-5V15a5,5,0,0,1,10,0V67.71A5,5,0,0,1,137.74,72.71Z"/><path class="cls-3" d="M85.16,96.36a5,5,0,0,1-3.53-1.47L44.36,57.62a5,5,0,1,1,7.07-7.07L88.7,87.82a5,5,0,0,1-3.54,8.54Z"/><path class="cls-3" d="M64.71,150.26H12a5,5,0,0,1,0-10H64.71a5,5,0,0,1,0,10Z"/><path class="cls-3" d="M51.09,240.11a5,5,0,0,1-3.54-8.54L84.82,194.3a5,5,0,0,1,7.07,7.07L54.62,238.64A5,5,0,0,1,51.09,240.11Z"/><path class="cls-3" d="M142.26,276a5,5,0,0,1-5-5V218.29a5,5,0,1,1,10,0V271A5,5,0,0,1,142.26,276Z"/><path class="cls-3" d="M211.17,203.91,204.1,211,197,203.9l-5.72-5.72a5,5,0,0,1,7.07-7.07l5.72,5.72Z"/><path class="cls-3" d="M268,145.74H215.29a5,5,0,1,1,0-10H268a5,5,0,0,1,0,10Z"/><path class="cls-3" d="M191.64,93.16a5,5,0,0,1-3.53-8.53l37.27-37.27a5,5,0,1,1,7.07,7.07L195.18,91.7A5,5,0,0,1,191.64,93.16Z"/><path class="cls-4" d="M340.87,74.21l-68.13,68.12-3.15,3.15-58.42,58.43L204.1,211,180.87,234.2a5,5,0,1,1-7.08-7.07l30.3-30.3,51.1-51.09L333.8,67.13a5,5,0,1,1,7.07,7.08Z"/><path class="cls-4" d="M253,243.92l-11.22,11.22L173.89,323,93,403.92a5,5,0,0,1-7.07-7.07l82.76-82.76L176.8,306,224,258.8l8.15-8.15,13.8-13.8a5,5,0,0,1,7.07,7.07Z"/></svg>